<?xml version="1.0" encoding="utf-8"?>
<svg viewBox="-13.807 -31.463 114.862 114.862" xmlns="http://www.w3.org/2000/svg">
  <g>
    <circle style="fill: rgb(197, 228, 231);" cx="43.624" cy="25.968" r="57.431"/>
    <path fill="#3D6666" d="M 6.72 17.472 C 7.664 17.472 8.512 17.352 9.264 17.112 C 10.016 16.872 10.656 16.528 11.184 16.08 C 11.706 15.64 12.121 15.085 12.396 14.46 C 12.676 13.828 12.816 13.12 12.816 12.336 L 12.816 12.048 C 12.816 10.576 12.352 9.464 11.424 8.712 C 10.496 7.96 9.152 7.424 7.392 7.104 C 6.804 7.004 6.223 6.867 5.652 6.696 C 5.196 6.552 4.828 6.388 4.548 6.204 C 4.268 6.02 4.072 5.812 3.96 5.58 C 3.845 5.336 3.788 5.069 3.792 4.8 C 3.792 4.24 4.024 3.796 4.488 3.468 C 4.952 3.14 5.584 2.976 6.384 2.976 C 7.328 2.976 8.06 3.224 8.58 3.72 C 9.1 4.216 9.36 4.8 9.36 5.472 L 9.36 6.048 L 12.528 6.048 L 12.528 5.184 C 12.53 4.508 12.396 3.838 12.132 3.216 C 11.864 2.586 11.463 2.021 10.956 1.56 C 10.436 1.08 9.792 0.7 9.024 0.42 C 8.256 0.14 7.376 0 6.384 0 C 5.504 0 4.708 0.12 3.996 0.36 C 3.284 0.6 2.676 0.936 2.172 1.368 C 1.668 1.8 1.276 2.308 0.996 2.892 C 0.716 3.476 0.576 4.112 0.576 4.8 L 0.576 4.944 C 0.576 5.776 0.72 6.48 1.008 7.056 C 1.291 7.626 1.707 8.12 2.22 8.496 C 2.74 8.88 3.352 9.188 4.056 9.42 C 4.76 9.652 5.536 9.84 6.384 9.984 C 7.024 10.096 7.552 10.232 7.968 10.392 C 8.384 10.552 8.712 10.732 8.952 10.932 C 9.192 11.132 9.36 11.356 9.456 11.604 C 9.552 11.852 9.6 12.112 9.6 12.384 C 9.6 12.96 9.368 13.456 8.904 13.872 C 8.44 14.288 7.728 14.496 6.768 14.496 C 5.536 14.496 4.628 14.196 4.044 13.596 C 3.46 12.996 3.168 12.192 3.168 11.184 L 3.168 10.608 L 0 10.608 L 0 11.328 C 0 12.208 0.144 13.02 0.432 13.764 C 0.712 14.496 1.146 15.159 1.704 15.708 C 2.264 16.26 2.964 16.692 3.804 17.004 C 4.644 17.316 5.616 17.472 6.72 17.472 Z M 28.72 17.136 L 28.72 10.8 L 32.128 10.8 C 32.992 10.8 33.744 10.656 34.384 10.368 C 34.99 10.104 35.534 9.716 35.98 9.228 C 36.402 8.76 36.728 8.213 36.94 7.62 C 37.156 7.02 37.264 6.408 37.264 5.784 L 37.264 5.208 C 37.264 4.6 37.156 4.004 36.94 3.42 C 36.727 2.841 36.401 2.311 35.98 1.86 C 35.53 1.386 34.986 1.01 34.384 0.756 C 33.744 0.476 32.992 0.336 32.128 0.336 L 25.552 0.336 L 25.552 17.136 L 28.72 17.136 Z M 31.816 7.776 L 28.72 7.776 L 28.72 3.36 L 31.816 3.36 C 32.52 3.36 33.076 3.552 33.484 3.936 C 33.892 4.32 34.096 4.816 34.096 5.424 L 34.096 5.712 C 34.096 6.32 33.892 6.816 33.484 7.2 C 33.076 7.584 32.52 7.776 31.816 7.776 Z M 61.28 17.136 L 61.28 14.112 L 53.648 14.112 L 53.648 0.336 L 50.48 0.336 L 50.48 17.136 L 61.28 17.136 Z M 86.16 17.136 L 86.16 14.112 L 82.128 14.112 L 82.128 3.36 L 86.16 3.36 L 86.16 0.336 L 74.928 0.336 L 74.928 3.36 L 78.96 3.36 L 78.96 14.112 L 74.928 14.112 L 74.928 17.136 L 86.16 17.136 Z M 8.064 53.136 L 8.064 39.36 L 12.528 39.36 L 12.528 36.336 L 0.432 36.336 L 0.432 39.36 L 4.896 39.36 L 4.896 53.136 L 8.064 53.136 Z M 32.752 53.136 L 32.752 39.36 L 37.216 39.36 L 37.216 36.336 L 25.12 36.336 L 25.12 39.36 L 29.584 39.36 L 29.584 53.136 L 32.752 53.136 Z M 61.376 53.136 L 61.376 50.112 L 53.648 50.112 L 53.648 46.224 L 60.8 46.224 L 60.8 43.2 L 53.648 43.2 L 53.648 39.36 L 61.088 39.36 L 61.088 36.336 L 50.48 36.336 L 50.48 53.136 L 61.376 53.136 Z M 78.12 53.136 L 78.12 46.8 L 81.768 46.8 C 82.232 46.8 82.564 46.92 82.764 47.16 C 82.964 47.4 83.064 47.712 83.064 48.096 L 83.064 53.136 L 86.232 53.136 L 86.232 47.328 C 86.232 46.768 86.068 46.304 85.74 45.936 C 85.412 45.568 84.968 45.352 84.408 45.288 L 84.408 44.856 C 85.176 44.536 85.744 44.076 86.112 43.476 C 86.474 42.897 86.665 42.227 86.664 41.544 L 86.664 40.968 C 86.664 40.328 86.548 39.728 86.316 39.168 C 86.086 38.611 85.743 38.109 85.308 37.692 C 84.868 37.268 84.32 36.936 83.664 36.696 C 83.008 36.456 82.248 36.336 81.384 36.336 L 74.952 36.336 L 74.952 53.136 L 78.12 53.136 Z M 81.144 43.776 L 78.12 43.776 L 78.12 39.36 L 81.144 39.36 C 81.912 39.36 82.496 39.564 82.896 39.972 C 83.296 40.38 83.496 40.864 83.496 41.424 L 83.496 41.712 C 83.496 42.368 83.296 42.876 82.896 43.236 C 82.496 43.596 81.912 43.776 81.144 43.776 Z"/>
  </g>
</svg>